<svg width="54" height="54" viewBox="0 0 54 54" fill="none" xmlns="http://www.w3.org/2000/svg">
<path d="M9.77716 46.4572C11.5621 43.5272 14.0708 41.1058 17.062 39.4255C20.0532 37.7452 23.4263 36.8626 26.8572 36.8626C30.288 36.8626 33.6611 37.7452 36.6523 39.4255C39.6435 41.1058 42.1522 43.5272 43.9372 46.4572M26.8572 30.8572C29.5093 30.8572 32.0529 29.8036 33.9282 27.9282C35.8036 26.0529 36.8572 23.5093 36.8572 20.8572C36.8572 18.205 35.8036 15.6615 33.9282 13.7861C32.0529 11.9107 29.5093 10.8572 26.8572 10.8572C24.205 10.8572 21.6615 11.9107 19.7861 13.7861C17.9107 15.6615 16.8572 18.205 16.8572 20.8572C16.8572 23.5093 17.9107 26.0529 19.7861 27.9282C21.6615 29.8036 24.205 30.8572 26.8572 30.8572Z" stroke="black" stroke-width="1.71429" stroke-linecap="round" stroke-linejoin="round"/>
<path d="M26.8571 52.8572C33.7527 52.8572 40.3659 50.1179 45.2419 45.242C50.1178 40.366 52.8571 33.7528 52.8571 26.8572C52.8571 19.9615 50.1178 13.3483 45.2419 8.4724C40.3659 3.59646 33.7527 0.857178 26.8571 0.857178C19.9615 0.857178 13.3483 3.59646 8.47234 8.4724C3.59639 13.3483 0.857117 19.9615 0.857117 26.8572C0.857117 33.7528 3.59639 40.366 8.47234 45.242C13.3483 50.1179 19.9615 52.8572 26.8571 52.8572Z" stroke="black" stroke-width="1.71429" stroke-linecap="round" stroke-linejoin="round"/>
</svg>
